<svg width="33" height="37" viewBox="0 0 33 37" fill="none" xmlns="http://www.w3.org/2000/svg">
<g id="calendar">
<path id="Vector" d="M10.3906 1.51758C10.3906 0.676587 9.65918 0 8.75 0C7.84082 0 7.10938 0.676587 7.10938 1.51758V4.04688H4.375C1.96191 4.04688 0 5.86165 0 8.09375V9.10547V12.1406V28.3281C0 30.5602 1.96191 32.375 4.375 32.375H26.25C28.6631 32.375 30.625 30.5602 30.625 28.3281V12.1406V9.10547V8.09375C30.625 5.86165 28.6631 4.04688 26.25 4.04688H23.5156V1.51758C23.5156 0.676587 22.7842 0 21.875 0C20.9658 0 20.2344 0.676587 20.2344 1.51758V4.04688H10.3906V1.51758ZM3.28125 12.1406H8.75V15.6816H3.28125V12.1406ZM3.28125 18.7168H8.75V22.7637H3.28125V18.7168ZM12.0312 18.7168H18.5938V22.7637H12.0312V18.7168ZM21.875 18.7168H27.3438V22.7637H21.875V18.7168ZM27.3438 15.6816H21.875V12.1406H27.3438V15.6816ZM27.3438 25.7988V28.3281C27.3438 28.8846 26.8516 29.3398 26.25 29.3398H21.875V25.7988H27.3438ZM18.5938 25.7988V29.3398H12.0312V25.7988H18.5938ZM8.75 25.7988V29.3398H4.375C3.77344 29.3398 3.28125 28.8846 3.28125 28.3281V25.7988H8.75ZM18.5938 15.6816H12.0312V12.1406H18.5938V15.6816Z" fill="#111111"/>
</g>
</svg>
