<svg width="37" height="37" viewBox="0 0 37 37" fill="none" xmlns="http://www.w3.org/2000/svg">
<g id="email">
<path id="Vector" d="M3.46875 4.625C1.55371 4.625 0 6.17871 0 8.09375C0 9.18496 0.513086 10.2111 1.3875 10.8687L17.1125 22.6625C17.9363 23.2768 19.0637 23.2768 19.8875 22.6625L35.6125 10.8687C36.4869 10.2111 37 9.18496 37 8.09375C37 6.17871 35.4463 4.625 33.5312 4.625H3.46875ZM0 12.7188V27.75C0 30.301 2.07402 32.375 4.625 32.375H32.375C34.926 32.375 37 30.301 37 27.75V12.7188L21.275 24.5125C19.6273 25.7482 17.3727 25.7482 15.725 24.5125L0 12.7188Z" fill="#111111"/>
</g>
</svg>
