<svg width="37" height="37" viewBox="0 0 37 37" fill="none" xmlns="http://www.w3.org/2000/svg">
<g id="phone" clip-path="url(#clip0_19_217)">
<path id="Vector" d="M11.9166 1.7779C11.3602 0.433758 9.89316 -0.281671 8.49121 0.101336L2.13184 1.83571C0.874414 2.18259 0 3.32438 0 4.62516C0 22.5037 14.4965 37.0002 32.375 37.0002C33.6758 37.0002 34.8176 36.1258 35.1645 34.8683L36.8988 28.509C37.2818 27.107 36.5664 25.64 35.2223 25.0836L28.2848 22.1929C27.1068 21.7015 25.741 22.0412 24.9389 23.0312L22.0193 26.5939C16.9318 24.1875 12.8127 20.0683 10.4062 14.9808L13.9689 12.0685C14.959 11.2591 15.2986 9.90055 14.8072 8.72262L11.9166 1.78513V1.7779Z" fill="#111111"/>
</g>
<defs>
<clipPath id="clip0_19_217">
<rect width="37" height="37" fill="white"/>
</clipPath>
</defs>
</svg>
